<svg xmlns="http://www.w3.org/2000/svg" width="24" viewBox="0 0 30 30" height="24" version="1.0"><defs><clipPath id="a"><path d="M 0.484375 0 L 29.515625 0 L 29.515625 29 L 0.484375 29 Z M 0.484375 0"/></clipPath></defs><g clip-path="url(#a)"><path fill="#FFF" d="M 18.050781 14.515625 L 28.703125 3.863281 C 29.535156 3.03125 29.53125 1.683594 28.699219 0.851562 C 27.871094 0.0234375 26.523438 0.0234375 25.695312 0.851562 L 15.039062 11.507812 L 4.386719 0.851562 C 3.554688 0.0195312 2.207031 0.015625 1.375 0.847656 C 0.542969 1.679688 0.542969 3.027344 1.371094 3.859375 C 1.375 3.863281 1.375 3.863281 1.375 3.863281 L 12.03125 14.515625 L 1.375 25.171875 C 0.546875 26.007812 0.546875 27.355469 1.378906 28.183594 C 2.210938 29.011719 3.554688 29.011719 4.386719 28.183594 L 15.039062 17.527344 L 25.695312 28.183594 C 26.527344 29.011719 27.875 29.011719 28.703125 28.179688 C 29.53125 27.347656 29.53125 26.003906 28.703125 25.171875 L 18.050781 14.515625"/></g></svg>